<svg width="23" height="24" viewBox="0 0 23 24" fill="none" xmlns="http://www.w3.org/2000/svg">
<g id="cil:animal">
<path id="Vector" d="M17.1972 14.1821C16.8532 12.9351 16.1096 11.8354 15.0805 11.0518C14.0514 10.2681 12.7935 9.84368 11.5 9.84368C10.2065 9.84368 8.94863 10.2681 7.91949 11.0518C6.89036 11.8354 6.14677 12.9351 5.80278 14.1821L4.98305 17.1537C4.83587 17.6872 4.81391 18.2475 4.91888 18.791C5.02386 19.3344 5.25293 19.8462 5.58824 20.2866C5.92355 20.7269 6.35604 21.0838 6.85198 21.3295C7.34792 21.5752 7.89391 21.7031 8.44738 21.7031H14.5526C15.1061 21.7031 15.6521 21.5752 16.148 21.3295C16.644 21.0838 17.0764 20.7269 17.4118 20.2866C17.7471 19.8462 17.9761 19.3344 18.0811 18.791C18.1861 18.2475 18.1641 17.6872 18.0169 17.1537L17.1972 14.1821ZM16.2681 19.4155C16.0678 19.6807 15.8085 19.8955 15.5107 20.0431C15.213 20.1906 14.8849 20.2668 14.5526 20.2656H8.44738C8.11529 20.2656 7.78769 20.1889 7.49012 20.0415C7.19255 19.894 6.93305 19.6799 6.73186 19.4157C6.53067 19.1515 6.39323 18.8444 6.33024 18.5183C6.26726 18.1922 6.28044 17.856 6.36875 17.5359L7.18849 14.5644C7.44881 13.6207 8.01155 12.7885 8.79037 12.1954C9.56919 11.6024 10.5211 11.2812 11.5 11.2812C12.4789 11.2812 13.4308 11.6024 14.2096 12.1954C14.9884 12.7885 15.5512 13.6207 15.8115 14.5644L16.6312 17.5359C16.7208 17.8559 16.7346 18.1924 16.6716 18.5187C16.6086 18.8449 16.4705 19.152 16.2681 19.4157V19.4155ZM6.56308 10.8459C6.68815 10.0643 6.52229 9.22752 6.0959 8.48918C5.6695 7.75085 5.02765 7.18883 4.28837 6.90631C3.49667 6.60394 2.68916 6.6521 2.0138 7.04184C0.67122 7.81702 0.31791 9.7275 1.22636 11.3007C1.65263 12.039 2.29452 12.6012 3.0338 12.8835C3.36127 13.0112 3.70937 13.0778 4.06085 13.0799C4.49872 13.0815 4.92919 12.9669 5.30837 12.748C5.98332 12.3582 6.42895 11.6827 6.56308 10.8459ZM5.14355 10.6187C5.07931 11.0198 4.88256 11.3339 4.58953 11.503C4.29651 11.6722 3.92617 11.6855 3.54658 11.5406C3.11475 11.3757 2.73282 11.0352 2.4711 10.5819C1.96798 9.71043 2.08756 8.65926 2.73255 8.28676C2.89471 8.19479 3.07833 8.14739 3.26474 8.14939C3.4396 8.15125 3.61266 8.185 3.77541 8.24898C4.20725 8.41398 4.58917 8.75444 4.85089 9.20775C5.1126 9.66106 5.21651 10.1623 5.14355 10.6187ZM6.71878 7.86791C7.22918 8.27594 7.81205 8.48842 8.40147 8.48837C8.57802 8.48831 8.75405 8.46931 8.92656 8.43173C10.4415 8.1024 11.36 6.39034 10.9741 4.61525C10.7931 3.78213 10.3529 3.05121 9.73479 2.55702C9.07287 2.02784 8.2888 1.82754 7.52702 1.99321C6.01216 2.32249 5.09364 4.03455 5.47948 5.80964C5.66056 6.6428 6.1007 7.37373 6.71878 7.86791ZM7.83231 3.39792C7.90216 3.38287 7.97342 3.37534 8.04488 3.37545C8.31207 3.37545 8.5869 3.47999 8.83716 3.68007C9.1982 3.96869 9.45825 4.40933 9.56939 4.92086C9.78322 5.90442 9.349 6.86903 8.62122 7.02724C8.29055 7.09912 7.93369 6.99903 7.61646 6.74536C7.25542 6.45669 6.99537 6.01605 6.88423 5.50457C6.67036 4.52074 7.10457 3.55613 7.83231 3.39792ZM20.9862 7.04184C20.3111 6.6521 19.5032 6.60394 18.7116 6.90631C17.9723 7.18874 17.3305 7.75085 16.9042 8.48918C16.4779 9.22752 16.312 10.0645 16.437 10.8459C16.571 11.6827 17.0165 12.3582 17.6917 12.748C18.0709 12.967 18.5014 13.0815 18.9392 13.0799C19.2907 13.0778 19.6388 13.0112 19.9663 12.8835C20.7056 12.6012 21.3475 12.039 21.7737 11.3007C22.6821 9.7275 22.3288 7.81702 20.9862 7.04184ZM20.5289 10.5819C20.2672 11.0352 19.8852 11.3757 19.4534 11.5406C19.074 11.6856 18.7036 11.6723 18.4106 11.503C18.1175 11.3338 17.9209 11.0198 17.8565 10.6187C17.7835 10.1623 17.8873 9.66124 18.1491 9.20816C18.4109 8.75507 18.7927 8.41439 19.2246 8.24939C19.3873 8.18534 19.5604 8.15153 19.7353 8.14962C19.9217 8.14761 20.1053 8.19501 20.2674 8.28699C20.9124 8.65917 21.0321 9.7102 20.5289 10.5819ZM14.0734 8.43173C14.2459 8.46931 14.422 8.48831 14.5985 8.48837C15.1879 8.48837 15.771 8.27594 16.2812 7.86791C16.8993 7.37377 17.3394 6.6428 17.5205 5.80968C17.9064 4.03459 16.9878 2.32253 15.473 1.99325C14.7112 1.82767 13.9271 2.02784 13.2652 2.55707C12.6471 3.05121 12.2069 3.78218 12.0259 4.61525C11.64 6.39034 12.5585 8.1024 14.0734 8.43173ZM13.4306 4.92063C13.5417 4.40911 13.8018 3.96829 14.1628 3.67985C14.4131 3.47976 14.6879 3.37523 14.9551 3.37523C15.0266 3.37511 15.0978 3.38264 15.1677 3.39769C15.8954 3.55591 16.3296 4.52074 16.1159 5.50408C16.0046 6.0156 15.7446 6.45642 15.3836 6.74491C15.0664 6.99854 14.7098 7.09862 14.3789 7.02679C13.651 6.8688 13.2168 5.90406 13.4306 4.92063Z" fill="#F29B30"/>
</g>
</svg>
