<svg width="26" height="26" viewBox="0 0 26 26" fill="none" xmlns="http://www.w3.org/2000/svg">
<g id="mdi-light:bell">
<path id="Vector" d="M13.2997 2.03814C13.2997 1.86365 13.2223 1.69631 13.0844 1.57294C12.9465 1.44956 12.7595 1.38024 12.5645 1.38024C12.3694 1.38024 12.1824 1.44956 12.0445 1.57294C11.9066 1.69631 11.8292 1.86365 11.8292 2.03814V4.0513C8.52034 4.38024 5.94681 6.88024 5.94681 9.93287V17.7092L3.60857 19.8013H21.5203L19.1821 17.7092V9.93287C19.1821 6.88024 16.6086 4.38024 13.2997 4.0513V2.03814ZM12.5645 0.0644531C13.1495 0.0644531 13.7106 0.272394 14.1242 0.642532C14.5379 1.01267 14.7703 1.51468 14.7703 2.03814V2.97235C18.1674 3.82761 20.6527 6.6434 20.6527 9.93287V17.1697L25.0645 21.1171H0.0644531L4.47622 17.1697V9.93287C4.47622 6.6434 6.96151 3.82761 10.3586 2.97235V2.03814C10.3586 1.51468 10.591 1.01267 11.0047 0.642532C11.4183 0.272394 11.9794 0.0644531 12.5645 0.0644531ZM12.5645 25.0645C11.7169 25.0646 10.8953 24.8028 10.2388 24.3232C9.58223 23.8437 9.13102 23.1759 8.96151 22.4329H10.4909C10.6422 22.8169 10.9228 23.1494 11.2942 23.3846C11.6656 23.6198 12.1094 23.7461 12.5645 23.7461C13.0195 23.7461 13.4633 23.6198 13.8347 23.3846C14.2061 23.1494 14.4867 22.8169 14.638 22.4329H16.1674C15.9979 23.1759 15.5467 23.8437 14.8901 24.3232C14.2336 24.8028 13.412 25.0646 12.5645 25.0645Z" fill="#111111"/>
</g>
</svg>
