<svg width="14" height="13" viewBox="0 0 14 13" fill="none" xmlns="http://www.w3.org/2000/svg">
<g id="Vector">
<mask id="path-1-inside-1_57_319" fill="white">
<path fill-rule="evenodd" clip-rule="evenodd" d="M4.17212 12.4992C4.05609 12.4992 3.94482 12.4541 3.86278 12.3737C3.78074 12.2934 3.73465 12.1844 3.73465 12.0707V1.96372L0.982118 4.66081C0.899974 4.74127 0.788562 4.78647 0.672392 4.78647C0.556223 4.78647 0.444811 4.74127 0.362667 4.66081C0.280523 4.58034 0.234374 4.47121 0.234374 4.35742C0.234374 4.24362 0.280523 4.13449 0.362667 4.05403L3.86239 0.625893C3.90303 0.585987 3.9513 0.554325 4.00445 0.532723C4.0576 0.51112 4.11457 0.5 4.17212 0.5C4.22966 0.5 4.28663 0.51112 4.33978 0.532723C4.39293 0.554325 4.44121 0.585987 4.48184 0.625893L7.98157 4.05403C8.06371 4.13449 8.10986 4.24362 8.10986 4.35742C8.10986 4.47121 8.06371 4.58034 7.98157 4.66081C7.89942 4.74127 7.78801 4.78647 7.67184 4.78647C7.55567 4.78647 7.44426 4.74127 7.36211 4.66081L4.60958 1.96372V12.0707C4.60958 12.1844 4.56349 12.2934 4.48145 12.3737C4.39941 12.4541 4.28814 12.4992 4.17212 12.4992ZM10.2966 0.500766C10.1806 0.500766 10.0693 0.545913 9.9873 0.626276C9.90526 0.706638 9.85917 0.815633 9.85917 0.929283V11.0363L7.10664 8.33919C7.02449 8.25873 6.91308 8.21353 6.79691 8.21353C6.68074 8.21353 6.56933 8.25873 6.48718 8.33919C6.40504 8.41966 6.35889 8.52879 6.35889 8.64258C6.35889 8.75638 6.40504 8.86551 6.48718 8.94597L9.98691 12.3741C10.0275 12.414 10.0758 12.4457 10.129 12.4673C10.1821 12.4889 10.2391 12.5 10.2966 12.5C10.3542 12.5 10.4112 12.4889 10.4643 12.4673C10.5174 12.4457 10.5657 12.414 10.6064 12.3741L14.1061 8.94597C14.1882 8.86551 14.2344 8.75638 14.2344 8.64258C14.2344 8.52879 14.1882 8.41966 14.1061 8.33919C14.0239 8.25873 13.9125 8.21353 13.7964 8.21353C13.6802 8.21353 13.5688 8.25873 13.4866 8.33919L10.7341 11.0363V0.929283C10.7341 0.815633 10.688 0.706638 10.606 0.626276C10.5239 0.545913 10.4127 0.500766 10.2966 0.500766Z"/>
</mask>
<path fill-rule="evenodd" clip-rule="evenodd" d="M4.17212 12.4992C4.05609 12.4992 3.94482 12.4541 3.86278 12.3737C3.78074 12.2934 3.73465 12.1844 3.73465 12.0707V1.96372L0.982118 4.66081C0.899974 4.74127 0.788562 4.78647 0.672392 4.78647C0.556223 4.78647 0.444811 4.74127 0.362667 4.66081C0.280523 4.58034 0.234374 4.47121 0.234374 4.35742C0.234374 4.24362 0.280523 4.13449 0.362667 4.05403L3.86239 0.625893C3.90303 0.585987 3.9513 0.554325 4.00445 0.532723C4.0576 0.51112 4.11457 0.5 4.17212 0.5C4.22966 0.5 4.28663 0.51112 4.33978 0.532723C4.39293 0.554325 4.44121 0.585987 4.48184 0.625893L7.98157 4.05403C8.06371 4.13449 8.10986 4.24362 8.10986 4.35742C8.10986 4.47121 8.06371 4.58034 7.98157 4.66081C7.89942 4.74127 7.78801 4.78647 7.67184 4.78647C7.55567 4.78647 7.44426 4.74127 7.36211 4.66081L4.60958 1.96372V12.0707C4.60958 12.1844 4.56349 12.2934 4.48145 12.3737C4.39941 12.4541 4.28814 12.4992 4.17212 12.4992ZM10.2966 0.500766C10.1806 0.500766 10.0693 0.545913 9.9873 0.626276C9.90526 0.706638 9.85917 0.815633 9.85917 0.929283V11.0363L7.10664 8.33919C7.02449 8.25873 6.91308 8.21353 6.79691 8.21353C6.68074 8.21353 6.56933 8.25873 6.48718 8.33919C6.40504 8.41966 6.35889 8.52879 6.35889 8.64258C6.35889 8.75638 6.40504 8.86551 6.48718 8.94597L9.98691 12.3741C10.0275 12.414 10.0758 12.4457 10.129 12.4673C10.1821 12.4889 10.2391 12.5 10.2966 12.5C10.3542 12.5 10.4112 12.4889 10.4643 12.4673C10.5174 12.4457 10.5657 12.414 10.6064 12.3741L14.1061 8.94597C14.1882 8.86551 14.2344 8.75638 14.2344 8.64258C14.2344 8.52879 14.1882 8.41966 14.1061 8.33919C14.0239 8.25873 13.9125 8.21353 13.7964 8.21353C13.6802 8.21353 13.5688 8.25873 13.4866 8.33919L10.7341 11.0363V0.929283C10.7341 0.815633 10.688 0.706638 10.606 0.626276C10.5239 0.545913 10.4127 0.500766 10.2966 0.500766Z" fill="black"/>
<path d="M3.73465 1.96372L2.3349 0.535193L5.73465 -2.79607V1.96372H3.73465ZM0.982118 4.66081L2.38187 6.08934L2.38164 6.08956L0.982118 4.66081ZM0.672392 4.78647L0.672392 2.78647L0.672392 4.78647ZM0.362667 4.05403L-1.03686 2.62528L-1.03686 2.62527L0.362667 4.05403ZM3.86239 0.625893L5.26372 2.05288L5.26192 2.05464L3.86239 0.625893ZM4.17212 0.5L4.17212 -1.5L4.17212 0.5ZM4.48184 0.625893L3.08232 2.05465L3.08051 2.05287L4.48184 0.625893ZM7.98157 4.05403L6.58204 5.48278L7.98157 4.05403ZM7.36211 4.66081L5.96259 6.08956L5.96236 6.08934L7.36211 4.66081ZM4.60958 1.96372H2.60958V-2.79607L6.00933 0.535193L4.60958 1.96372ZM10.2966 0.500766L10.2966 -1.49923L10.2966 0.500766ZM9.85917 11.0363H11.8592V15.7961L8.45942 12.4648L9.85917 11.0363ZM7.10664 8.33919L8.50616 6.91044L8.50639 6.91066L7.10664 8.33919ZM6.79691 8.21353L6.79691 6.21353L6.79691 8.21353ZM6.35889 8.64258L4.35889 8.64258L6.35889 8.64258ZM6.48718 8.94597L7.88671 7.51722L7.88671 7.51722L6.48718 8.94597ZM9.98691 12.3741L11.3864 10.9454L11.3882 10.9471L9.98691 12.3741ZM10.6064 12.3741L9.20503 10.9471L9.20683 10.9454L10.6064 12.3741ZM14.1061 8.94597L15.5056 10.3747L15.5056 10.3747L14.1061 8.94597ZM13.7964 8.21353L13.7964 10.2135L13.7964 8.21353ZM13.4866 8.33919L12.0869 6.91066L12.0871 6.91044L13.4866 8.33919ZM10.7341 11.0363L12.1339 12.4648L8.7341 15.7961V11.0363H10.7341ZM10.7341 0.929283L8.7341 0.929283L10.7341 0.929283ZM4.17212 12.4992V14.4992C3.53884 14.4992 2.92339 14.2532 2.46326 13.8025L3.86278 12.3737L5.26231 10.945C4.96625 10.655 4.57334 10.4992 4.17212 10.4992V12.4992ZM3.86278 12.3737L2.46326 13.8025C2.00171 13.3504 1.73465 12.7283 1.73465 12.0707H3.73465H5.73465C5.73465 11.6404 5.55977 11.2364 5.26231 10.945L3.86278 12.3737ZM3.73465 12.0707H1.73465V1.96372H3.73465H5.73465V12.0707H3.73465ZM3.73465 1.96372L5.1344 3.39225L2.38187 6.08934L0.982118 4.66081L-0.417633 3.23228L2.3349 0.535193L3.73465 1.96372ZM0.982118 4.66081L2.38164 6.08956C1.9214 6.54039 1.30581 6.78647 0.672392 6.78647L0.672392 4.78647L0.672392 2.78647C0.271318 2.78647 -0.121449 2.94215 -0.417406 3.23206L0.982118 4.66081ZM0.672392 4.78647L0.672392 6.78647C0.0389731 6.78647 -0.576616 6.54039 -1.03686 6.08956L0.362667 4.66081L1.76219 3.23206C1.46624 2.94216 1.07347 2.78647 0.672392 2.78647L0.672392 4.78647ZM0.362667 4.66081L-1.03686 6.08956C-1.4985 5.63736 -1.76563 5.01514 -1.76563 4.35742L0.234374 4.35742L2.23437 4.35742C2.23437 3.92728 2.05955 3.52333 1.76219 3.23206L0.362667 4.66081ZM0.234374 4.35742L-1.76563 4.35742C-1.76563 3.69969 -1.4985 3.07748 -1.03686 2.62528L0.362667 4.05403L1.76219 5.48278C2.05955 5.1915 2.23437 4.78755 2.23437 4.35742L0.234374 4.35742ZM0.362667 4.05403L-1.03686 2.62527L2.46287 -0.802858L3.86239 0.625893L5.26192 2.05464L1.76219 5.48278L0.362667 4.05403ZM3.86239 0.625893L2.46106 -0.801089C2.68931 -1.02524 2.95823 -1.20093 3.25135 -1.32007L4.00445 0.532723L4.75755 2.38552C4.94438 2.30958 5.11674 2.19721 5.26372 2.05287L3.86239 0.625893ZM4.00445 0.532723L3.25135 -1.32007C3.54441 -1.43919 3.85719 -1.5 4.17212 -1.5L4.17212 0.5L4.17212 2.5C4.37196 2.5 4.57078 2.46143 4.75755 2.38552L4.00445 0.532723ZM4.17212 0.5L4.17212 -1.5C4.48705 -1.5 4.79982 -1.43919 5.09288 -1.32007L4.33978 0.532723L3.58668 2.38552C3.77345 2.46143 3.97227 2.5 4.17212 2.5L4.17212 0.5ZM4.33978 0.532723L5.09288 -1.32007C5.386 -1.20093 5.65491 -1.02524 5.88317 -0.801089L4.48184 0.625893L3.08051 2.05287C3.2275 2.19722 3.39986 2.30958 3.58668 2.38552L4.33978 0.532723ZM4.48184 0.625893L5.88137 -0.802858L9.38109 2.62528L7.98157 4.05403L6.58204 5.48278L3.08232 2.05464L4.48184 0.625893ZM7.98157 4.05403L9.38109 2.62528C9.84274 3.07748 10.1099 3.69969 10.1099 4.35742H8.10986H6.10986C6.10986 4.78755 6.28468 5.1915 6.58204 5.48278L7.98157 4.05403ZM8.10986 4.35742H10.1099C10.1099 5.01514 9.84274 5.63736 9.38109 6.08956L7.98157 4.66081L6.58204 3.23206C6.28468 3.52333 6.10986 3.92728 6.10986 4.35742H8.10986ZM7.98157 4.66081L9.38109 6.08956C8.92085 6.54039 8.30526 6.78647 7.67184 6.78647V4.78647V2.78647C7.27076 2.78647 6.878 2.94215 6.58204 3.23206L7.98157 4.66081ZM7.67184 4.78647V6.78647C7.03842 6.78647 6.42283 6.54039 5.96259 6.08956L7.36211 4.66081L8.76164 3.23206C8.46568 2.94215 8.07292 2.78647 7.67184 2.78647V4.78647ZM7.36211 4.66081L5.96236 6.08934L3.20983 3.39225L4.60958 1.96372L6.00933 0.535193L8.76187 3.23228L7.36211 4.66081ZM4.60958 1.96372H6.60958V12.0707H4.60958H2.60958V1.96372H4.60958ZM4.60958 12.0707H6.60958C6.60958 12.7283 6.34253 13.3504 5.88098 13.8025L4.48145 12.3737L3.08193 10.945C2.78446 11.2364 2.60958 11.6405 2.60958 12.0707H4.60958ZM4.48145 12.3737L5.88098 13.8025C5.42084 14.2532 4.80539 14.4992 4.17212 14.4992V12.4992V10.4992C3.77089 10.4992 3.37798 10.655 3.08193 10.945L4.48145 12.3737ZM10.2966 0.500766L10.2966 2.50077C10.6979 2.50077 11.0908 2.34503 11.3868 2.05503L9.9873 0.626276L8.58777 -0.802476C9.04791 -1.2532 9.66336 -1.49923 10.2966 -1.49923L10.2966 0.500766ZM9.9873 0.626276L11.3868 2.05503C11.6843 1.76365 11.8592 1.35956 11.8592 0.929283H9.85917H7.85917C7.85917 0.271704 8.12623 -0.350376 8.58777 -0.802476L9.9873 0.626276ZM9.85917 0.929283H11.8592V11.0363H9.85917H7.85917V0.929283H9.85917ZM9.85917 11.0363L8.45942 12.4648L5.70688 9.76772L7.10664 8.33919L8.50639 6.91066L11.2589 9.60775L9.85917 11.0363ZM7.10664 8.33919L5.70711 9.76794C6.00307 10.0579 6.39584 10.2135 6.79691 10.2135L6.79691 8.21353L6.79691 6.21353C7.43032 6.21353 8.04591 6.45961 8.50616 6.91044L7.10664 8.33919ZM6.79691 8.21353L6.79691 10.2135C7.19798 10.2135 7.59075 10.0579 7.88671 9.76794L6.48718 8.33919L5.08766 6.91044C5.54791 6.45961 6.1635 6.21353 6.79691 6.21353L6.79691 8.21353ZM6.48718 8.33919L7.88671 9.76794C8.18407 9.47667 8.35889 9.07271 8.35889 8.64258L6.35889 8.64258L4.35889 8.64258C4.35889 7.98487 4.62601 7.36265 5.08766 6.91044L6.48718 8.33919ZM6.35889 8.64258L8.35889 8.64258C8.35889 8.21245 8.18407 7.8085 7.88671 7.51722L6.48718 8.94597L5.08766 10.3747C4.62601 9.92252 4.35889 9.3003 4.35889 8.64258L6.35889 8.64258ZM6.48718 8.94597L7.88671 7.51722L11.3864 10.9454L9.98691 12.3741L8.58738 13.8029L5.08766 10.3747L6.48718 8.94597ZM9.98691 12.3741L11.3882 10.9471C11.2412 10.8028 11.0689 10.6904 10.8821 10.6145L10.129 12.4673L9.37587 14.3201C9.08276 14.2009 8.81384 14.0253 8.58558 13.8011L9.98691 12.3741ZM10.129 12.4673L10.8821 10.6145C10.6953 10.5386 10.4965 10.5 10.2966 10.5V12.5V14.5C9.9817 14.5 9.66893 14.4392 9.37587 14.3201L10.129 12.4673ZM10.2966 12.5V10.5C10.0968 10.5 9.89797 10.5386 9.7112 10.6145L10.4643 12.4673L11.2174 14.3201C10.9243 14.4392 10.6116 14.5 10.2966 14.5V12.5ZM10.4643 12.4673L9.7112 10.6145C9.52439 10.6904 9.35202 10.8028 9.20503 10.9471L10.6064 12.3741L12.0077 13.8011C11.7794 14.0252 11.5105 14.2009 11.2174 14.3201L10.4643 12.4673ZM10.6064 12.3741L9.20683 10.9454L12.7066 7.51722L14.1061 8.94597L15.5056 10.3747L12.0059 13.8029L10.6064 12.3741ZM14.1061 8.94597L12.7066 7.51722C12.4092 7.8085 12.2344 8.21245 12.2344 8.64258L14.2344 8.64258L16.2344 8.64258C16.2344 9.3003 15.9673 9.92252 15.5056 10.3747L14.1061 8.94597ZM14.2344 8.64258L12.2344 8.64258C12.2344 9.07272 12.4092 9.47667 12.7066 9.76794L14.1061 8.33919L15.5056 6.91044C15.9673 7.36265 16.2344 7.98486 16.2344 8.64258L14.2344 8.64258ZM14.1061 8.33919L12.7066 9.76794C13.0025 10.0579 13.3953 10.2135 13.7964 10.2135L13.7964 8.21353L13.7964 6.21353C14.4298 6.21353 15.0454 6.45961 15.5056 6.91044L14.1061 8.33919ZM13.7964 8.21353L13.7964 10.2135C14.1974 10.2135 14.5902 10.0579 14.8862 9.76794L13.4866 8.33919L12.0871 6.91044C12.5474 6.45961 13.1629 6.21353 13.7964 6.21353L13.7964 8.21353ZM13.4866 8.33919L14.8864 9.76772L12.1339 12.4648L10.7341 11.0363L9.33435 9.60775L12.0869 6.91066L13.4866 8.33919ZM10.7341 11.0363H8.7341V0.929283H10.7341H12.7341V11.0363H10.7341ZM10.7341 0.929283L8.7341 0.929283C8.7341 1.35956 8.90898 1.76365 9.20644 2.05503L10.606 0.626276L12.0055 -0.802476C12.467 -0.350373 12.7341 0.271707 12.7341 0.929283L10.7341 0.929283ZM10.606 0.626276L9.20644 2.05503C9.5025 2.34503 9.89541 2.50077 10.2966 2.50077L10.2966 0.500766L10.2966 -1.49923C10.9299 -1.49923 11.5454 -1.2532 12.0055 -0.802476L10.606 0.626276Z" fill="black" mask="url(#path-1-inside-1_57_319)"/>
</g>
</svg>
