<svg width="20" height="20" viewBox="0 0 20 20" fill="none" xmlns="http://www.w3.org/2000/svg">
<g id="mdi:message-bubble">
<path id="Vector" d="M10.0002 3C5.58229 3 2.16626 5.85885 2.16626 9.16699C2.16648 12.475 5.58244 15.333 10.0002 15.333C10.9852 15.333 11.9298 15.1903 12.802 14.9365L13.0618 14.8613L13.2668 15.0371C14.4079 16.0139 15.6781 16.5071 16.6711 16.7549C16.8061 16.7886 16.9358 16.8167 17.0588 16.8418C15.8525 15.3716 15.5875 14.3225 15.5432 13.792L15.5217 13.5342L15.72 13.3672C17.0448 12.2527 17.8331 10.7684 17.8333 9.16699C17.8333 5.85893 14.418 3.00014 10.0002 3Z" stroke="#111111" stroke-opacity="0.3"/>
</g>
</svg>
