<svg width="22" height="22" viewBox="0 0 22 22" fill="none" xmlns="http://www.w3.org/2000/svg">
<g id="material-symbols-light:chat-outline-rounded">
<path id="Vector" d="M5.57058 15.5833L4.00858 17.1453C3.77697 17.3769 3.50931 17.4301 3.20558 17.3048C2.90186 17.1796 2.75 16.9519 2.75 16.6219V4.23133C2.75 3.80906 2.89147 3.45675 3.17442 3.17442C3.45736 2.89208 3.80967 2.75061 4.23133 2.75H17.7696C18.1913 2.75 18.5436 2.89147 18.8265 3.17442C19.1094 3.45736 19.2506 3.80967 19.25 4.23133V14.1029C19.25 14.5246 19.1088 14.8769 18.8265 15.1598C18.5442 15.4428 18.1919 15.5839 17.7696 15.5833H5.57058ZM5.17917 14.6667H17.7696C17.9101 14.6667 18.0394 14.608 18.1573 14.4907C18.2753 14.3733 18.3339 14.2441 18.3333 14.1029V4.23042C18.3333 4.08986 18.2747 3.96061 18.1573 3.84267C18.04 3.72472 17.9108 3.66606 17.7696 3.66667H4.23042C4.08986 3.66667 3.96061 3.72533 3.84267 3.84267C3.72472 3.96 3.66606 4.08925 3.66667 4.23042V16.1746L5.17917 14.6667ZM6.41667 12.375H11.9167C12.0474 12.375 12.1565 12.3313 12.2439 12.2439C12.3313 12.1565 12.375 12.0474 12.375 11.9167C12.375 11.7859 12.3313 11.6768 12.2439 11.5894C12.1565 11.502 12.0474 11.4583 11.9167 11.4583H6.41667C6.2865 11.4583 6.17742 11.502 6.08942 11.5894C6.00142 11.6768 5.95772 11.7859 5.95833 11.9167C5.95894 12.0474 6.00264 12.1565 6.08942 12.2439C6.17619 12.3313 6.28528 12.375 6.41667 12.375ZM6.41667 9.625H15.5833C15.7141 9.625 15.8232 9.58131 15.9106 9.49392C15.998 9.40653 16.0417 9.29744 16.0417 9.16667C16.0417 9.03589 15.998 8.9268 15.9106 8.83942C15.8232 8.75203 15.7141 8.70833 15.5833 8.70833H6.41667C6.2865 8.70833 6.17742 8.75203 6.08942 8.83942C6.00142 8.9268 5.95772 9.03589 5.95833 9.16667C5.95894 9.29744 6.00264 9.40653 6.08942 9.49392C6.17619 9.58131 6.28528 9.625 6.41667 9.625ZM6.41667 6.875H15.5833C15.7141 6.875 15.8232 6.83131 15.9106 6.74392C15.998 6.65653 16.0417 6.54744 16.0417 6.41667C16.0417 6.28589 15.998 6.17681 15.9106 6.08942C15.8232 6.00203 15.7141 5.95833 15.5833 5.95833H6.41667C6.2865 5.95833 6.17742 6.00203 6.08942 6.08942C6.00142 6.17681 5.95772 6.28589 5.95833 6.41667C5.95894 6.54744 6.00264 6.65653 6.08942 6.74392C6.17619 6.83131 6.28528 6.875 6.41667 6.875Z" fill="black"/>
</g>
</svg>
