<svg width="24" height="24" viewBox="0 0 24 24" fill="none" xmlns="http://www.w3.org/2000/svg">
<path fill-rule="evenodd" clip-rule="evenodd" d="M9.5 23C10.7476 23 11.9829 22.7543 13.1355 22.2769C14.2881 21.7994 15.3354 21.0997 16.2175 20.2175C17.0997 19.3354 17.7994 18.2881 18.2769 17.1355C18.7543 15.9829 19 14.7476 19 13.5C19 12.2524 18.7543 11.0171 18.2769 9.86451C17.7994 8.71191 17.0997 7.66464 16.2175 6.78249C15.3354 5.90033 14.2881 5.20056 13.1355 4.72314C11.9829 4.24572 10.7476 4 9.5 4C6.98044 4 4.56408 5.00089 2.78249 6.78249C1.00089 8.56408 0 10.9804 0 13.5C0 16.0196 1.00089 18.4359 2.78249 20.2175C4.56408 21.9991 6.98044 23 9.5 23ZM9.25511 17.3422L14.5329 11.0089L12.9116 9.65778L8.37267 15.1034L6.02406 12.7537L4.5315 14.2463L7.69817 17.4129L8.51517 18.2299L9.25511 17.3422Z" fill="#F5A623"/>
</svg>
