<svg width="21" height="21" viewBox="0 0 21 21" fill="none" xmlns="http://www.w3.org/2000/svg">
<rect width="21" height="21" rx="10.5" fill="#DBDBDB" fill-opacity="0.3"/>
<path d="M4.03125 16.9678L5.08125 12.8098L11.3392 6.55176L14.4473 9.65976L8.18925 15.9178L4.03125 16.9678ZM5.83725 13.2298L5.20725 15.7918L7.76925 15.1618L13.2712 9.65976L11.3392 7.72776L5.83725 13.2298Z" fill="black"/>
<path d="M7.47794 15.6656C7.22594 14.6156 6.38594 13.7756 5.33594 13.5236L5.54594 12.7256C6.88994 13.0616 7.93994 14.1116 8.27594 15.4556L7.47794 15.6656Z" fill="black"/>
<path d="M12.3023 8.10058L12.8962 8.69446L7.43203 14.1629L6.83815 13.5707L12.3023 8.10058ZM4.61719 16.38L5.83519 16.086C5.70919 15.624 5.37319 15.288 4.91119 15.162L4.61719 16.38ZM14.6972 9.40804L11.5892 6.30004L12.8492 5.04004L13.0592 5.08204C14.5712 5.29204 15.7472 6.46804 15.9572 7.98004L15.9992 8.19004L14.6972 9.40804ZM12.7652 6.30004L14.6972 8.23204L15.0752 7.85404C14.8652 6.88804 14.1092 6.13204 13.1432 5.92204L12.7652 6.30004Z" fill="black"/>
</svg>
