<svg width="16" height="14" viewBox="0 0 16 14" fill="none" xmlns="http://www.w3.org/2000/svg">
<path id="Vector" d="M7 5.00018V7.00014H5V9.0001H7V11.0001H9V9.0001H11V7.00014H9V5.00018H7ZM10 6.00016H12V10.0001H10V12H6V10.0001H4V6.00016H6V4.0002H10V6.00016ZM14.5 2.00024C14.7083 2.00024 14.9036 2.0393 15.0859 2.11742C15.2682 2.19555 15.4271 2.30232 15.5625 2.43773C15.6979 2.57314 15.8047 2.732 15.8828 2.91428C15.9609 3.09657 16 3.29188 16 3.50021V12.5C16 12.7084 15.9609 12.9037 15.8828 13.086C15.8047 13.2682 15.6979 13.4271 15.5625 13.5625C15.4271 13.6979 15.2682 13.8047 15.0859 13.8828C14.9036 13.9609 14.7083 14 14.5 14H1.5C1.29167 14 1.09635 13.9609 0.914062 13.8828C0.731771 13.8047 0.572917 13.6979 0.4375 13.5625C0.302083 13.4271 0.195313 13.2682 0.117188 13.086C0.0390625 12.9037 0 12.7084 0 12.5V3.50021C0 3.29188 0.0390625 3.09657 0.117188 2.91428C0.195313 2.732 0.302083 2.57314 0.4375 2.43773C0.572917 2.30232 0.731771 2.19555 0.914062 2.11742C1.09635 2.0393 1.29167 2.00024 1.5 2.00024H4C4 1.80753 3.9974 1.594 3.99219 1.35963C3.98698 1.12526 4.01042 0.909115 4.0625 0.711202C4.11458 0.51329 4.21094 0.344022 4.35156 0.2034C4.49219 0.0627778 4.70833 -0.00492922 5 0.000279012H11C11.1927 0.000279012 11.3516 0.0315284 11.4766 0.0940271C11.6016 0.156526 11.7005 0.239858 11.7734 0.344022C11.8464 0.448187 11.8984 0.567976 11.9297 0.70339C11.9609 0.838804 11.9844 0.98203 12 1.13307C12.0156 1.28411 12.0182 1.43254 12.0078 1.57837C11.9974 1.7242 11.9948 1.86483 12 2.00024H14.5ZM5 2.00024H11V1.00026H5V2.00024ZM15 3.50021C15 3.3648 14.9505 3.24761 14.8516 3.14865C14.7526 3.0497 14.6354 3.00022 14.5 3.00022H1.5C1.36458 3.00022 1.2474 3.0497 1.14844 3.14865C1.04948 3.24761 1 3.3648 1 3.50021V12.5C1 12.6354 1.04948 12.7526 1.14844 12.8516C1.2474 12.9505 1.36458 13 1.5 13H14.5C14.6354 13 14.7526 12.9505 14.8516 12.8516C14.9505 12.7526 15 12.6354 15 12.5V3.50021Z" fill="#111111"/>
</svg>
