<svg width="24" height="24" viewBox="0 0 24 24" fill="none" xmlns="http://www.w3.org/2000/svg">
<path d="M2.5 5.7C2.5 4.58 2.5 4.02 2.718 3.592C2.90974 3.21569 3.21569 2.90974 3.592 2.718C4.02 2.5 4.58 2.5 5.7 2.5H18.3C19.42 2.5 19.98 2.5 20.408 2.718C20.7843 2.90974 21.0903 3.21569 21.282 3.592C21.5 4.02 21.5 4.58 21.5 5.7V18.3C21.5 19.42 21.5 19.98 21.282 20.408C21.0903 20.7843 20.7843 21.0903 20.408 21.282C19.98 21.5 19.42 21.5 18.3 21.5H5.7C4.58 21.5 4.02 21.5 3.592 21.282C3.21569 21.0903 2.90974 20.7843 2.718 20.408C2.5 19.98 2.5 19.42 2.5 18.3V5.7Z" stroke="black" stroke-linecap="round"/>
<path d="M18.5 21.5L12.5 6.5M21.5 4.5L2.5 8.5M12.5 15.03C12.5 17.188 10.36 18.704 9.427 19.263C9.29801 19.3404 9.15042 19.3813 9 19.3813C8.84958 19.3813 8.70199 19.3404 8.573 19.263C7.64 18.704 5.5 17.188 5.5 15.029C5.5 12.912 7.196 11.5 9 11.5C10.867 11.5 12.5 12.912 12.5 15.03Z" stroke="black"/>
<path d="M9 16C9.55228 16 10 15.5523 10 15C10 14.4477 9.55228 14 9 14C8.44772 14 8 14.4477 8 15C8 15.5523 8.44772 16 9 16Z" fill="black"/>
</svg>
