<svg width="20" height="21" viewBox="0 0 20 21" fill="none" xmlns="http://www.w3.org/2000/svg">
<g id="Group">
<path id="Vector" d="M0.5 4.2C0.5 3.08 0.5 2.52 0.718 2.092C0.909744 1.71569 1.21569 1.40974 1.592 1.218C2.02 1 2.58 1 3.7 1H16.3C17.42 1 17.98 1 18.408 1.218C18.7843 1.40974 19.0903 1.71569 19.282 2.092C19.5 2.52 19.5 3.08 19.5 4.2V16.8C19.5 17.92 19.5 18.48 19.282 18.908C19.0903 19.2843 18.7843 19.5903 18.408 19.782C17.98 20 17.42 20 16.3 20H3.7C2.58 20 2.02 20 1.592 19.782C1.21569 19.5903 0.909744 19.2843 0.718 18.908C0.5 18.48 0.5 17.92 0.5 16.8V4.2Z" stroke="#F29B30" stroke-linecap="round"/>
<path id="Vector_2" d="M16.5 20L10.5 5M19.5 3L0.5 7M10.5 13.53C10.5 15.688 8.36 17.204 7.427 17.763C7.29801 17.8404 7.15042 17.8813 7 17.8813C6.84958 17.8813 6.70199 17.8404 6.573 17.763C5.64 17.204 3.5 15.688 3.5 13.529C3.5 11.412 5.196 10 7 10C8.867 10 10.5 11.412 10.5 13.53Z" stroke="#F29B30"/>
<path id="Vector_3" d="M7 14.5C7.55228 14.5 8 14.0523 8 13.5C8 12.9477 7.55228 12.5 7 12.5C6.44772 12.5 6 12.9477 6 13.5C6 14.0523 6.44772 14.5 7 14.5Z" fill="#F29B30"/>
</g>
</svg>
