<svg width="22" height="22" viewBox="0 0 22 22" fill="none" xmlns="http://www.w3.org/2000/svg">
<g id="streamline:health-medical-syringe-instrument-medical-syringe-health-beauty-needle">
<path id="Vector" d="M11 4.71434L3.80285 11.7701C3.51064 12.0619 3.27882 12.4086 3.12066 12.7901C2.9625 13.1716 2.88109 13.5806 2.88109 13.9936C2.88109 14.4066 2.9625 14.8156 3.12066 15.1972C3.27882 15.5787 3.51064 15.9253 3.80285 16.2172L5.78285 18.1972C6.07474 18.4894 6.42136 18.7212 6.80289 18.8794C7.18443 19.0375 7.5934 19.119 8.00642 19.119C8.41944 19.119 8.82841 19.0375 9.20995 18.8794C9.59148 18.7212 9.93811 18.4894 10.23 18.1972L17.2857 11.0001M16.5 0.785767L21.2143 5.50005M14.1429 7.8572L18.8571 3.14291M4.79285 17.2072L0.785706 21.2143M8.64285 2.3572L19.6429 13.3572" stroke="black" stroke-linecap="round" stroke-linejoin="round"/>
</g>
</svg>
