<svg width="20" height="20" viewBox="0 0 20 20" fill="none" xmlns="http://www.w3.org/2000/svg">
<g id="si:alert-line">
<path id="Vector" d="M9.99996 13.3331H10.0066M9.99996 8.33314V10.8331M8.81246 4.34731L2.9308 14.1665C2.80961 14.3765 2.74552 14.6146 2.74488 14.8571C2.74424 15.0996 2.80708 15.338 2.92716 15.5487C3.04724 15.7593 3.22037 15.9349 3.42934 16.0579C3.6383 16.1809 3.87583 16.2471 4.1183 16.2498H15.8816C16.1242 16.2473 16.3619 16.1813 16.571 16.0584C16.7801 15.9354 16.9533 15.7598 17.0735 15.5491C17.1936 15.3383 17.2564 15.0998 17.2556 14.8572C17.2549 14.6146 17.1906 14.3765 17.0691 14.1665L11.1883 4.34731C11.0646 4.14309 10.8903 3.97421 10.6823 3.85701C10.4743 3.7398 10.2396 3.67822 10.0008 3.67822C9.76203 3.67822 9.5273 3.7398 9.31929 3.85701C9.11127 3.97421 8.93699 4.14309 8.8133 4.34731" stroke="white" stroke-width="1.5" stroke-miterlimit="10" stroke-linecap="round" stroke-linejoin="round"/>
</g>
</svg>
