<svg width="42" height="40" viewBox="0 0 42 40" fill="none" xmlns="http://www.w3.org/2000/svg">
<g id="&#236;&#158;&#144;&#234;&#184;&#176; &#236;&#156;&#132;&#236;&#185;&#152;">
<circle id="&#237;&#129;&#176;&#236;&#155;&#144;" cx="20.0859" cy="20" r="19.5" fill="white" stroke="#DBDBDB"/>
<circle id="&#236;&#158;&#145;&#236;&#157;&#128;&#236;&#160;&#144;" cx="21.0859" cy="20" r="2" fill="#111111"/>
<path id="&#236;&#158;&#144;&#234;&#184;&#176;&#236;&#156;&#132;&#236;&#185;&#152;" d="M20.6181 30C20.3524 30 20.1299 29.9126 19.9505 29.7379C19.7705 29.5626 19.6805 29.3455 19.6805 29.0868V28.1735C17.7273 27.9604 16.0516 27.1729 14.6534 25.811C13.2546 24.4484 12.4458 22.8158 12.2271 20.9132H11.2895C11.0239 20.9132 10.8011 20.8256 10.6211 20.6502C10.4417 20.4755 10.352 20.2588 10.352 20C10.352 19.7412 10.4417 19.5242 10.6211 19.3489C10.8011 19.1741 11.0239 19.0868 11.2895 19.0868H12.2271C12.4458 17.1842 13.2546 15.5516 14.6534 14.189C16.0516 12.8271 17.7273 12.0396 19.6805 11.8265V10.9132C19.6805 10.6545 19.7705 10.4374 19.9505 10.2621C20.1299 10.0874 20.3524 10 20.6181 10C20.8837 10 21.1065 10.0874 21.2865 10.2621C21.4659 10.4374 21.5556 10.6545 21.5556 10.9132V11.8265C23.5088 12.0396 25.1848 12.8271 26.5836 14.189C27.9818 15.5516 28.7903 17.1842 29.0091 19.0868H29.9466C30.2122 19.0868 30.4351 19.1741 30.6151 19.3489C30.7944 19.5242 30.8841 19.7412 30.8841 20C30.8841 20.2588 30.7944 20.4755 30.6151 20.6502C30.4351 20.8256 30.2122 20.9132 29.9466 20.9132H29.0091C28.7903 22.8158 27.9818 24.4484 26.5836 25.811C25.1848 27.1729 23.5088 27.9604 21.5556 28.1735V29.0868C21.5556 29.3455 21.4659 29.5626 21.2865 29.7379C21.1065 29.9126 20.8837 30 20.6181 30ZM20.6181 26.3927C22.4306 26.3927 23.9776 25.7686 25.2589 24.5205C26.5402 23.2724 27.1809 21.7656 27.1809 20C27.1809 18.2344 26.5402 16.7275 25.2589 15.4795C23.9776 14.2314 22.4306 13.6073 20.6181 13.6073C18.8055 13.6073 17.2585 14.2314 15.9772 15.4795C14.6959 16.7275 14.0553 18.2344 14.0553 20C14.0553 21.7656 14.6959 23.2724 15.9772 24.5205C17.2585 25.7686 18.8055 26.3927 20.6181 26.3927Z" fill="#111111"/>
</g>
</svg>
