<svg width="18" height="19" viewBox="0 0 18 19" fill="none" xmlns="http://www.w3.org/2000/svg">
<path d="M9 12.625C11.3893 12.625 13.5143 13.1369 15.0146 13.9287C16.5489 14.7385 17.25 15.7285 17.25 16.625V18.25H0.75V16.625C0.75 15.7285 1.45108 14.7385 2.98535 13.9287C4.48568 13.1369 6.61074 12.625 9 12.625ZM9 0.75C9.98108 0.75 10.9309 1.16118 11.6377 1.90723C12.3457 2.65463 12.75 3.67653 12.75 4.75L12.7451 4.9502C12.6982 5.94987 12.3015 6.89199 11.6377 7.59277C10.9309 8.33882 9.98108 8.75 9 8.75L8.81641 8.74512C7.90113 8.69721 7.02489 8.29217 6.3623 7.59277C5.65433 6.84537 5.25 5.82347 5.25 4.75L5.25488 4.5498C5.30181 3.55013 5.69849 2.60801 6.3623 1.90723C7.06908 1.16118 8.01892 0.75 9 0.75Z" stroke="#111111" stroke-width="1.5"/>
</svg>
