<svg width="27" height="27" viewBox="0 0 27 27" fill="none" xmlns="http://www.w3.org/2000/svg">
<path d="M16.3428 26H10.6572L9.87395 22.5556C8.94194 22.1993 8.07027 21.7076 7.28838 21.0972L3.84285 22.1569L1 17.3458L3.6609 14.9597C3.51081 13.993 3.51081 13.0097 3.6609 12.0431L1 9.65556L3.84285 4.84444L7.28838 5.90417C8.07061 5.29316 8.94277 4.80104 9.87537 4.44444L10.6572 1H16.3428L17.126 4.44444C18.0581 4.80073 18.9297 5.29238 19.7116 5.90278L23.1572 4.84306L26 9.65417L23.3391 12.0403C23.4892 13.007 23.4892 13.9903 23.3391 14.9569L26 17.3431L23.1572 22.1542L19.7116 21.0944C18.9299 21.7058 18.0582 22.1984 17.126 22.5556L16.3428 26Z" stroke="#AFADAD" stroke-width="2" stroke-linecap="round" stroke-linejoin="round"/>
<path d="M13.4986 17.6663C15.8537 17.6663 17.7629 15.8009 17.7629 13.4997C17.7629 11.1985 15.8537 9.33301 13.4986 9.33301C11.1436 9.33301 9.23438 11.1985 9.23438 13.4997C9.23438 15.8009 11.1436 17.6663 13.4986 17.6663Z" stroke="#AFADAD" stroke-width="2"/>
</svg>
