<svg width="18" height="18" viewBox="0 0 18 18" fill="none" xmlns="http://www.w3.org/2000/svg">
<path d="M3.077 15.7994L1.373 17.7224C1.12033 18.0076 0.828333 18.073 0.497 17.9188C0.165667 17.7646 0 17.4843 0 17.078V1.8237C0 1.30383 0.154333 0.870096 0.463 0.522509C0.771667 0.174922 1.156 0.000752353 1.616 0H16.385C16.845 0 17.2293 0.17417 17.538 0.522509C17.8467 0.870849 18.0007 1.30458 18 1.8237V13.9768C18 14.496 17.846 14.9297 17.538 15.278C17.23 15.6264 16.8457 15.8002 16.385 15.7994H3.077ZM2.65 14.6709H16.385C16.5383 14.6709 16.6793 14.5987 16.808 14.4542C16.9367 14.3098 17.0007 14.1506 17 13.9768V1.82257C17 1.64953 16.936 1.49041 16.808 1.34521C16.68 1.2 16.539 1.12778 16.385 1.12853H1.615C1.46167 1.12853 1.32067 1.20076 1.192 1.34521C1.06333 1.48966 0.999333 1.64878 1 1.82257V16.5273L2.65 14.6709ZM4 11.8496H10C10.1427 11.8496 10.2617 11.7958 10.357 11.6882C10.4523 11.5806 10.5 11.4463 10.5 11.2853C10.5 11.1243 10.4523 10.99 10.357 10.8824C10.2617 10.7748 10.1427 10.721 10 10.721H4C3.858 10.721 3.739 10.7748 3.643 10.8824C3.547 10.99 3.49933 11.1243 3.5 11.2853C3.50067 11.4463 3.54833 11.5806 3.643 11.6882C3.73767 11.7958 3.85667 11.8496 4 11.8496ZM4 8.46397H14C14.1427 8.46397 14.2617 8.41018 14.357 8.30259C14.4523 8.195 14.5 8.06071 14.5 7.89971C14.5 7.7387 14.4523 7.60441 14.357 7.49682C14.2617 7.38923 14.1427 7.33544 14 7.33544H4C3.858 7.33544 3.739 7.38923 3.643 7.49682C3.547 7.60441 3.49933 7.7387 3.5 7.89971C3.50067 8.06071 3.54833 8.195 3.643 8.30259C3.73767 8.41018 3.85667 8.46397 4 8.46397ZM4 5.07838H14C14.1427 5.07838 14.2617 5.02459 14.357 4.917C14.4523 4.80942 14.5 4.67512 14.5 4.51412C14.5 4.35311 14.4523 4.21882 14.357 4.11123C14.2617 4.00365 14.1427 3.94985 14 3.94985H4C3.858 3.94985 3.739 4.00365 3.643 4.11123C3.547 4.21882 3.49933 4.35311 3.5 4.51412C3.50067 4.67512 3.54833 4.80942 3.643 4.917C3.73767 5.02459 3.85667 5.07838 4 5.07838Z" fill="#1DCD9F"/>
</svg>
