<svg width="18" height="18" viewBox="0 0 18 18" fill="none" xmlns="http://www.w3.org/2000/svg">
<path d="M8.89744 3.3749C7.7248 3.39604 6.58809 3.78319 5.64632 4.48219C4.70455 5.1812 4.00483 6.1571 3.64503 7.27338C3.28524 8.38966 3.28336 9.59049 3.63967 10.7079C3.99599 11.8253 4.69266 12.8034 5.63224 13.5053C5.77546 13.6127 5.87014 13.7726 5.89546 13.9498C5.92077 14.1271 5.87465 14.3071 5.76724 14.4503C5.65983 14.5935 5.49992 14.6882 5.3227 14.7135C5.14548 14.7388 4.96546 14.6927 4.82224 14.5853C3.689 13.7382 2.84019 12.5664 2.38847 11.2256C1.93675 9.88476 1.90348 8.43826 2.29308 7.07808C2.68268 5.7179 3.47672 4.50837 4.56981 3.61003C5.66291 2.71168 7.00335 2.16701 8.41324 2.0483L7.88764 1.5209C7.76841 1.39295 7.7035 1.22371 7.70658 1.04883C7.70967 0.873964 7.78051 0.707117 7.90418 0.583445C8.02785 0.459774 8.1947 0.388933 8.36957 0.385847C8.54444 0.382762 8.71368 0.447673 8.84164 0.566905L10.7514 2.4758C10.8778 2.60237 10.9488 2.77393 10.9488 2.9528C10.9488 3.13168 10.8778 3.30324 10.7514 3.4298L8.84164 5.3405C8.71368 5.45974 8.54444 5.52465 8.36957 5.52156C8.1947 5.51848 8.02785 5.44764 7.90418 5.32396C7.78051 5.20029 7.70967 5.03345 7.70658 4.85857C7.7035 4.6837 7.76841 4.51446 7.88764 4.3865L8.89744 3.3749ZM9.10444 14.6231C10.2771 14.602 11.4138 14.2148 12.3556 13.5158C13.2973 12.8168 13.9971 11.8409 14.3568 10.7246C14.7166 9.60835 14.7185 8.40752 14.3622 7.29012C14.0059 6.17272 13.3092 5.19465 12.3696 4.4927C12.2264 4.38529 12.1317 4.22539 12.1064 4.04816C12.0811 3.87094 12.1272 3.69092 12.2346 3.5477C12.3421 3.40449 12.502 3.30981 12.6792 3.28449C12.8564 3.25917 13.0364 3.30529 13.1796 3.4127C13.443 3.6107 13.6941 3.8288 13.9329 4.067C14.8732 5.0071 15.5251 6.19635 15.812 7.49463C16.0988 8.79291 16.0086 10.1461 15.552 11.3949C15.0953 12.6436 14.2913 13.7358 13.2346 14.5428C12.1779 15.3497 10.9126 15.8379 9.58774 15.9497L10.1142 16.4762C10.1787 16.5384 10.2302 16.6129 10.2656 16.6952C10.301 16.7776 10.3197 16.8661 10.3205 16.9558C10.3213 17.0454 10.3043 17.1343 10.2704 17.2172C10.2365 17.3002 10.1864 17.3756 10.1231 17.439C10.0597 17.5024 9.98437 17.5526 9.90143 17.5866C9.81849 17.6205 9.72962 17.6377 9.63999 17.6369C9.55037 17.6362 9.46178 17.6176 9.37941 17.5823C9.29704 17.5469 9.22254 17.4955 9.16024 17.4311L7.25044 15.5222C7.12404 15.3956 7.05304 15.2241 7.05304 15.0452C7.05304 14.8663 7.12404 14.6948 7.25044 14.5682L9.16024 12.6584C9.22204 12.5921 9.29656 12.5389 9.37936 12.502C9.46216 12.4651 9.55154 12.4453 9.64217 12.4437C9.7328 12.4421 9.82283 12.4587 9.90688 12.4927C9.99093 12.5266 10.0673 12.5772 10.1314 12.6413C10.1955 12.7054 10.246 12.7817 10.28 12.8658C10.3139 12.9498 10.3306 13.0398 10.329 13.1305C10.3274 13.2211 10.3075 13.3105 10.2706 13.3933C10.2338 13.4761 10.1806 13.5506 10.1142 13.6124L9.10444 14.6231Z" fill="#1DCD9F"/>
</svg>
