<svg width="16" height="16" viewBox="0 0 16 16" fill="none" xmlns="http://www.w3.org/2000/svg">
<g id="ion:paw">
<path id="Vector" d="M13.9553 5.25049C14.0449 5.2504 14.1341 5.2629 14.22 5.2876L14.304 5.31592H14.3059C14.5095 5.3982 14.6859 5.55457 14.8127 5.79639L14.8635 5.90479C15.0622 6.3776 15.0513 7.07229 14.7688 7.7583C14.3882 8.66813 13.7176 9.18259 13.1555 9.24365L13.0442 9.25049H13.0432C12.9539 9.25055 12.8651 9.23794 12.7795 9.21338L12.6956 9.18408L12.6926 9.18311C12.4883 9.10056 12.312 8.94524 12.1858 8.70459L12.135 8.59521H12.134C11.961 8.18269 11.9489 7.59965 12.1399 7.00049L12.2346 6.74268C12.6074 5.84491 13.2729 5.32575 13.8323 5.25732L13.9426 5.25049H13.9553ZM2.04224 5.25049H2.04321C2.5885 5.25051 3.27007 5.70886 3.68579 6.56592L3.76587 6.74268C4.01567 7.34371 4.05575 7.9504 3.92896 8.40967L3.8645 8.59619C3.73733 8.89951 3.54046 9.08982 3.30688 9.18408L3.30493 9.18506C3.19424 9.22844 3.07617 9.25058 2.95728 9.25049C2.41188 9.25049 1.72943 8.79146 1.31372 7.93408L1.23462 7.75732C0.984957 7.15657 0.944927 6.55049 1.07153 6.09131L1.13599 5.90381C1.26227 5.60269 1.45603 5.41256 1.68384 5.31885H1.68774L1.69458 5.31592C1.7777 5.28334 1.86477 5.26261 1.95337 5.25439L2.04224 5.25049ZM5.67114 2.00049C5.93205 2.00049 6.22527 2.12043 6.49536 2.40283L6.60864 2.53369L6.60962 2.53467C6.8445 2.82909 7.02766 3.22833 7.12036 3.67529L7.15454 3.86963C7.24537 4.4973 7.14814 5.05673 6.9436 5.45752C6.76526 5.80691 6.52054 6.01456 6.2561 6.09131L6.14185 6.11572H6.14087C6.09975 6.12185 6.05744 6.12548 6.01587 6.12549L5.90259 6.11768C5.67233 6.08737 5.4246 5.96408 5.19263 5.72119L5.07837 5.59033L4.98071 5.45752C4.79251 5.1802 4.64692 4.83217 4.56763 4.44971L4.53345 4.25635V4.25537C4.44272 3.62802 4.54001 3.06916 4.74438 2.66846C4.92271 2.31904 5.16746 2.11145 5.43188 2.03467L5.54614 2.00928H5.54712C5.58804 2.00318 5.62977 2.00053 5.67114 2.00049ZM10.4524 2.0083L10.4534 2.00928C10.7613 2.05481 11.0513 2.26903 11.2551 2.66846C11.4595 3.06915 11.5567 3.62745 11.4661 4.25439C11.399 4.71457 11.2378 5.13432 11.0188 5.45752L10.9221 5.59033C10.621 5.96807 10.2819 6.12451 9.98364 6.12451L9.85962 6.11572H9.85864C9.55102 6.07034 9.26065 5.85666 9.05688 5.45752C8.8779 5.10687 8.78113 4.63479 8.82056 4.10205L8.84595 3.87061V3.86963C8.91188 3.40978 9.07389 2.98965 9.29321 2.6665L9.39087 2.53467V2.53369C9.69064 2.15779 10.03 2.00016 10.3284 1.99951L10.4524 2.0083ZM3.02466 12.4604C3.02354 12.308 3.04527 12.1563 3.08716 12.0103L3.13599 11.8657L3.13989 11.854C3.27666 11.4794 3.54605 11.2343 3.92017 10.9858L4.32837 10.731C4.74518 10.4802 5.23871 10.1909 5.60864 9.70459L5.75903 9.48389H5.76001C6.19071 8.77087 6.49103 8.28011 6.83032 7.95264C7.135 7.65872 7.46915 7.50049 8.00024 7.50049C8.53111 7.50053 8.86426 7.6581 9.16821 7.95166C9.42238 8.19718 9.65512 8.53451 9.93677 8.98877L10.2375 9.48291V9.48389C10.5203 9.95138 10.915 10.2573 11.2952 10.5015L11.6663 10.729C12.2539 11.0824 12.6714 11.353 12.8538 11.853L12.8567 11.8599L12.8586 11.8667C12.9151 12.0086 12.9511 12.1575 12.9651 12.3091L12.9719 12.4614V12.4624C12.9719 13.3314 12.3008 14.0005 11.5247 14.0005C11.0636 14.0004 10.5571 13.8395 9.91235 13.6304H9.91333C9.33829 13.4424 8.63621 13.2075 8.00317 13.2075C7.52857 13.2075 7.01415 13.3396 6.54321 13.4849L6.09009 13.6304C5.44464 13.8406 4.93449 14.0015 4.47485 14.0015C3.69664 14.0014 3.0249 13.3322 3.02466 12.4644V12.4604Z" stroke="#111111"/>
</g>
</svg>
