<svg width="16" height="16" viewBox="0 0 16 16" fill="none" xmlns="http://www.w3.org/2000/svg">
<path d="M8 10.5C9.10457 10.5 10 9.60457 10 8.5C10 7.39543 9.10457 6.5 8 6.5C6.89543 6.5 6 7.39543 6 8.5C6 9.60457 6.89543 10.5 8 10.5Z" fill="black"/>
<path d="M14.25 4.5H11.6562C11.5625 4.5 11.4463 4.43937 11.3556 4.34375L10.5031 3.00625C10.1563 2.5 10 2.5 9.4375 2.5H6.5625C6 2.5 5.8125 2.5 5.49781 3.00656L4.64437 4.34375C4.575 4.41938 4.4775 4.5 4.375 4.5V4C4.375 3.9337 4.34866 3.87011 4.30178 3.82322C4.25489 3.77634 4.1913 3.75 4.125 3.75H2.875C2.8087 3.75 2.74511 3.77634 2.69822 3.82322C2.65134 3.87011 2.625 3.9337 2.625 4V4.5H1.75C1.55109 4.5 1.36032 4.57902 1.21967 4.71967C1.07902 4.86032 1 5.05109 1 5.25V12.75C1 12.9489 1.07902 13.1397 1.21967 13.2803C1.36032 13.421 1.55109 13.5 1.75 13.5H14.25C14.4489 13.5 14.6397 13.421 14.7803 13.2803C14.921 13.1397 15 12.9489 15 12.75V5.25C15 5.05109 14.921 4.86032 14.7803 4.71967C14.6397 4.57902 14.4489 4.5 14.25 4.5ZM8.14094 11.4969C7.53626 11.5253 6.93714 11.3701 6.42229 11.0517C5.90744 10.7333 5.50096 10.2666 5.25624 9.71295C5.01153 9.15928 4.94004 8.54453 5.05116 7.94947C5.16228 7.35442 5.45082 6.8069 5.87886 6.37886C6.3069 5.95082 6.85442 5.66228 7.44947 5.55116C8.04453 5.44004 8.65928 5.51153 9.21295 5.75624C9.76663 6.00096 10.2333 6.40744 10.5517 6.92229C10.8701 7.43714 11.0253 8.03626 10.9969 8.64094C10.9611 9.38682 10.6487 10.0926 10.1206 10.6206C9.59262 11.1487 8.88682 11.4611 8.14094 11.4969Z" fill="black"/>
</svg>
