<svg width="16" height="16" viewBox="0 0 16 16" fill="none" xmlns="http://www.w3.org/2000/svg">
<path id="Vector" fill-rule="evenodd" clip-rule="evenodd" d="M11.5 1.5C11.303 1.5 11.108 1.5388 10.926 1.61418C10.744 1.68957 10.5786 1.80006 10.4393 1.93934C10.3001 2.07863 10.1896 2.24399 10.1142 2.42598C10.0388 2.60797 10 2.80302 10 3C10 3.19699 10.0388 3.39204 10.1142 3.57403C10.1896 3.75602 10.3001 3.92138 10.4393 4.06066C10.5786 4.19995 10.744 4.31044 10.926 4.38582C11.108 4.46121 11.303 4.5 11.5 4.5C11.8978 4.5 12.2794 4.34197 12.5607 4.06066C12.842 3.77936 13 3.39783 13 3C13 2.60218 12.842 2.22065 12.5607 1.93934C12.2794 1.65804 11.8978 1.5 11.5 1.5ZM9.05 2.5C9.16476 1.93486 9.47136 1.42677 9.91787 1.06181C10.3644 0.696863 10.9233 0.497498 11.5 0.497498C12.0767 0.497498 12.6356 0.696863 13.0821 1.06181C13.5286 1.42677 13.8352 1.93486 13.95 2.5H16V3.5H13.95C13.8352 4.06515 13.5286 4.57324 13.0821 4.93819C12.6356 5.30314 12.0767 5.50251 11.5 5.50251C10.9233 5.50251 10.3644 5.30314 9.91787 4.93819C9.47136 4.57324 9.16476 4.06515 9.05 3.5H0V2.5H9.05ZM4.5 6.5C4.10218 6.5 3.72064 6.65804 3.43934 6.93934C3.15804 7.22065 3 7.60218 3 8C3 8.39783 3.15804 8.77936 3.43934 9.06066C3.72064 9.34197 4.10218 9.5 4.5 9.5C4.89782 9.5 5.27936 9.34197 5.56066 9.06066C5.84196 8.77936 6 8.39783 6 8C6 7.60218 5.84196 7.22065 5.56066 6.93934C5.27936 6.65804 4.89782 6.5 4.5 6.5ZM2.05 7.5C2.16476 6.93486 2.47136 6.42677 2.91787 6.06181C3.36438 5.69686 3.92332 5.4975 4.5 5.4975C5.07668 5.4975 5.63562 5.69686 6.08213 6.06181C6.52864 6.42677 6.83524 6.93486 6.95 7.5H16V8.5H6.95C6.83524 9.06515 6.52864 9.57324 6.08213 9.93819C5.63562 10.3031 5.07668 10.5025 4.5 10.5025C3.92332 10.5025 3.36438 10.3031 2.91787 9.93819C2.47136 9.57324 2.16476 9.06515 2.05 8.5H0V7.5H2.05ZM11.5 11.5C11.1022 11.5 10.7206 11.658 10.4393 11.9393C10.158 12.2206 10 12.6022 10 13C10 13.3978 10.158 13.7794 10.4393 14.0607C10.7206 14.342 11.1022 14.5 11.5 14.5C11.8978 14.5 12.2794 14.342 12.5607 14.0607C12.842 13.7794 13 13.3978 13 13C13 12.6022 12.842 12.2206 12.5607 11.9393C12.2794 11.658 11.8978 11.5 11.5 11.5ZM9.05 12.5C9.16476 11.9349 9.47136 11.4268 9.91787 11.0618C10.3644 10.6969 10.9233 10.4975 11.5 10.4975C12.0767 10.4975 12.6356 10.6969 13.0821 11.0618C13.5286 11.4268 13.8352 11.9349 13.95 12.5H16V13.5H13.95C13.8352 14.0651 13.5286 14.5732 13.0821 14.9382C12.6356 15.3031 12.0767 15.5025 11.5 15.5025C10.9233 15.5025 10.3644 15.3031 9.91787 14.9382C9.47136 14.5732 9.16476 14.0651 9.05 13.5H0V12.5H9.05Z" fill="black"/>
</svg>
