<svg width="18" height="18" viewBox="0 0 18 18" fill="none" xmlns="http://www.w3.org/2000/svg">
<path id="Vector" d="M6.79092 17.1201C3.57018 17.1201 0.959247 14.5092 0.959247 11.2884V8.87707C0.959247 8.62622 0.845021 8.38902 0.648903 8.23262V8.23262C0.442006 8.05262 0.282132 7.85012 0.169279 7.62512C0.0564264 7.40012 0 7.17512 0 6.95012C0 6.71012 0.0564264 6.48152 0.169279 6.26432C0.282132 6.04652 0.442006 5.85512 0.648903 5.69012L2.58023 4.13813C3.72228 3.22039 5.14347 2.72012 6.60858 2.72012H7.09812C8.2381 2.72012 9.34431 2.33303 10.2356 1.62224L11.0596 0.965117C12.413 -0.114273 14.3331 -0.114273 15.6865 0.965117V0.965117C16.4765 1.58012 17.0596 2.27372 17.4357 3.04592C17.8119 3.81872 18 4.61012 18 5.42012C18 6.23012 17.8119 7.01762 17.4357 7.78262C17.0596 8.54762 16.4765 9.24512 15.6865 9.87512L14.7453 10.6257C13.8781 11.3173 13.373 12.3661 13.373 13.4753V13.4753C13.373 15.4883 11.7412 17.1201 9.72825 17.1201H6.79092ZM3.2163 13.6819C3.2163 14.5867 3.94974 15.3201 4.85449 15.3201H8.18497C9.80372 15.3201 11.116 14.0079 11.116 12.3891V12.3891C11.116 11.4971 11.5222 10.6537 12.2195 10.0976L14.0784 8.61512C14.6238 8.18012 15.0376 7.68122 15.3197 7.11842C15.6019 6.55622 15.7429 5.99012 15.7429 5.42012C15.7429 4.85012 15.6019 4.28762 15.3197 3.73262C15.0376 3.17762 14.6238 2.68262 14.0784 2.24762V2.24762C13.6675 1.90686 13.0739 1.90116 12.6566 2.23397L10.8678 3.66053C10.17 4.21705 9.30389 4.52012 8.41133 4.52012H5.45695C5.33971 4.52012 5.22594 4.55993 5.13428 4.63302V4.63302C4.8745 4.8402 4.8745 5.23503 5.13428 5.44221L6.51724 6.54512C7.0627 6.98012 7.47649 7.47512 7.75862 8.03012C8.04075 8.58512 8.18182 9.14762 8.18182 9.71762C8.18182 10.2876 8.04075 10.854 7.75862 11.4168C7.64174 11.6497 7.50226 11.8717 7.34019 12.0828C6.92277 12.6264 6.13715 12.6095 5.60129 12.1821V12.1821C4.63906 11.4148 3.2163 12.0999 3.2163 13.3307V13.6819Z" fill="#D9D9D9"/>
</svg>
