<svg width="24" height="24" viewBox="0 0 24 24" fill="none" xmlns="http://www.w3.org/2000/svg">
<path id="Vector" d="M12 15.75C15.2237 15.75 18.1038 16.4045 20.1504 17.4277C22.2416 18.4734 23.25 19.7794 23.25 21V23.25H0.75V21C0.75 19.7794 1.75835 18.4734 3.84961 17.4277C5.89618 16.4045 8.77627 15.75 12 15.75ZM12 0.75C13.3924 0.75 14.7273 1.30352 15.7119 2.28809C16.6965 3.27265 17.25 4.60761 17.25 6L17.2432 6.26074C17.1787 7.55819 16.6348 8.78899 15.7119 9.71191C14.7273 10.6965 13.3924 11.25 12 11.25L11.7393 11.2432C10.4418 11.1787 9.21102 10.6348 8.28809 9.71191C7.30352 8.72735 6.75 7.39239 6.75 6L6.75684 5.73926C6.82131 4.44181 7.36516 3.21102 8.28809 2.28809C9.27265 1.30352 10.6076 0.75 12 0.75Z" stroke="#111111" stroke-width="1.5"/>
</svg>
