<svg width="150" height="150" viewBox="0 0 150 150" fill="none" xmlns="http://www.w3.org/2000/svg">
<rect width="150" height="150" rx="75" fill="#DBDBDB"/>
<path d="M75 40C79.6413 40 84.0925 41.8437 87.3744 45.1256C90.6563 48.4075 92.5 52.8587 92.5 57.5C92.5 62.1413 90.6563 66.5925 87.3744 69.8744C84.0925 73.1563 79.6413 75 75 75C70.3587 75 65.9075 73.1563 62.6256 69.8744C59.3437 66.5925 57.5 62.1413 57.5 57.5C57.5 52.8587 59.3437 48.4075 62.6256 45.1256C65.9075 41.8437 70.3587 40 75 40ZM75 83.75C94.3375 83.75 110 91.5812 110 101.25V110H40V101.25C40 91.5812 55.6625 83.75 75 83.75Z" fill="#AFADAD"/>
</svg>
