<svg width="16" height="16" viewBox="0 0 16 16" fill="none" xmlns="http://www.w3.org/2000/svg">
<path d="M7.10695 9.2664L5.57942 7.68074C5.50004 7.59806 5.40336 7.55377 5.28939 7.54786C5.17485 7.54196 5.07081 7.58802 4.97725 7.68605C4.88653 7.78054 4.84117 7.88507 4.84117 7.99964C4.84117 8.11421 4.88653 8.21874 4.97725 8.31323L6.62556 10.03C6.76334 10.1729 6.92381 10.2444 7.10695 10.2444C7.2901 10.2444 7.45056 10.1729 7.58835 10.03L11.0228 6.45296C11.1055 6.36674 11.1489 6.26516 11.1529 6.14823C11.1568 6.03071 11.1135 5.92322 11.0228 5.82578C10.9292 5.72834 10.828 5.67873 10.7191 5.67696C10.6102 5.67519 10.5093 5.72302 10.4163 5.82047L7.10695 9.2664ZM5.16777 15.6321L4.04848 13.6832L1.93834 13.219C1.76937 13.1866 1.6347 13.0921 1.53434 12.9356C1.43398 12.7797 1.39259 12.6137 1.41016 12.4377L1.61174 10.1735L0.18031 8.47268C0.0601034 8.34453 0 8.18685 0 7.99964C0 7.81243 0.0601034 7.65475 0.18031 7.5266L1.61174 5.82578L1.41016 3.56245C1.39315 3.38587 1.43454 3.21963 1.53434 3.06372C1.6347 2.90781 1.76937 2.81332 1.93834 2.78025L4.04763 2.31695L5.16691 0.368097C5.25877 0.209826 5.3821 0.100572 5.53689 0.0403344C5.69169 -0.0204935 5.85187 -0.012521 6.01744 0.0642522L8 0.936809L9.98171 0.0642522C10.1478 -0.012521 10.3083 -0.0204935 10.4631 0.0403344C10.6179 0.100572 10.7412 0.209826 10.8331 0.368097L11.9515 2.31695L14.0617 2.78025C14.2306 2.81332 14.3653 2.90781 14.4657 3.06372C14.566 3.21963 14.6074 3.38587 14.5898 3.56245L14.3891 5.82578L15.8197 7.5266C15.9399 7.65475 16 7.81243 16 7.99964C16 8.18685 15.9399 8.34483 15.8197 8.47357L14.3891 10.1735L14.5898 12.4368C14.6068 12.6134 14.5655 12.7797 14.4657 12.9356C14.3653 13.0921 14.2306 13.1866 14.0617 13.219L11.9524 13.6832L10.8331 15.6321C10.7412 15.7898 10.6179 15.899 10.4631 15.9598C10.3083 16.0207 10.1481 16.0124 9.98256 15.935L8 15.0625L6.01829 15.935C5.85215 16.0118 5.69169 16.0198 5.53689 15.959C5.3821 15.8987 5.25877 15.7895 5.16691 15.6312" fill="#D9D9D9"/>
</svg>
