<svg width="12" height="12" viewBox="0 0 12 12" fill="none" xmlns="http://www.w3.org/2000/svg">
<path id="Vector" d="M0.145167 0.854143C0.0986787 0.807655 0.0618026 0.752466 0.0366435 0.691727C0.0114844 0.630987 -0.00146484 0.565887 -0.00146484 0.500143C-0.00146484 0.434399 0.0114844 0.369299 0.0366435 0.30856C0.0618026 0.24782 0.0986787 0.192631 0.145167 0.146143C0.191655 0.0996553 0.246844 0.0627792 0.307583 0.0376201C0.368323 0.012461 0.433423 -0.000488282 0.499167 -0.000488281C0.564911 -0.000488281 0.630011 0.012461 0.69075 0.0376201C0.75149 0.0627792 0.806679 0.0996553 0.853167 0.146143L5.99917 5.29314L11.1452 0.146143C11.1917 0.0996553 11.2468 0.0627792 11.3076 0.0376201C11.3683 0.012461 11.4334 -0.000488281 11.4992 -0.000488281C11.5649 -0.000488281 11.63 0.012461 11.6908 0.0376201C11.7515 0.0627792 11.8067 0.0996553 11.8532 0.146143C11.8997 0.192631 11.9365 0.24782 11.9617 0.30856C11.9868 0.369299 11.9998 0.434399 11.9998 0.500143C11.9998 0.565887 11.9868 0.630987 11.9617 0.691727C11.9365 0.752466 11.8997 0.807655 11.8532 0.854143L6.70617 6.00014L11.8532 11.1461C11.8997 11.1926 11.9365 11.2478 11.9617 11.3086C11.9868 11.3693 11.9998 11.4344 11.9998 11.5001C11.9998 11.5659 11.9868 11.631 11.9617 11.6917C11.9365 11.7525 11.8997 11.8077 11.8532 11.8541C11.8067 11.9006 11.7515 11.9375 11.6908 11.9627C11.63 11.9878 11.5649 12.0008 11.4992 12.0008C11.4334 12.0008 11.3683 11.9878 11.3076 11.9627C11.2468 11.9375 11.1917 11.9006 11.1452 11.8541L5.99917 6.70714L0.853167 11.8541C0.806679 11.9006 0.75149 11.9375 0.69075 11.9627C0.630011 11.9878 0.564911 12.0008 0.499167 12.0008C0.433423 12.0008 0.368323 11.9878 0.307583 11.9627C0.246844 11.9375 0.191655 11.9006 0.145167 11.8541C0.0986787 11.8077 0.0618026 11.7525 0.0366435 11.6917C0.0114844 11.631 -0.00146484 11.5659 -0.00146484 11.5001C-0.00146484 11.4344 0.0114844 11.3693 0.0366435 11.3086C0.0618026 11.2478 0.0986787 11.1926 0.145167 11.1461L5.29217 6.00014L0.145167 0.854143Z" fill="#111111"/>
</svg>
